<?xml version="1.0" standalone="no"?>
<!DOCTYPE svg PUBLIC "-//W3C//DTD SVG 20010904//EN"
 "http://www.w3.org/TR/2001/REC-SVG-20010904/DTD/svg10.dtd">
<svg version="1.0" xmlns="http://www.w3.org/2000/svg"
 width="200.000000pt" height="73.000000pt" viewBox="0 0 200.000000 73.000000"
 preserveAspectRatio="xMidYMid meet">

<g transform="translate(0.000000,73.000000) scale(0.100000,-0.100000)"
fill="#000000" stroke="none">
<path d="M297 600 c-55 -17 -57 -23 -34 -110 17 -66 23 -77 35 -67 25 21 109
152 105 164 -2 6 4 13 14 16 10 3 -7 5 -37 5 -30 0 -68 -4 -83 -8z"/>
<path d="M519 567 c13 -16 12 -17 -13 -7 -15 5 -37 8 -49 5 -21 -6 -67 -64
-67 -84 0 -5 -6 -12 -12 -15 -7 -3 37 -4 97 -1 115 4 135 6 135 12 0 13 -37
56 -68 79 -20 16 -31 20 -23 11z"/>
<path d="M120 520 c-43 -67 -62 -155 -49 -224 12 -65 47 -136 66 -136 12 0 11
5 -5 28 -33 48 -46 94 -46 162 0 66 26 144 60 182 9 9 14 22 12 29 -2 7 -19
-12 -38 -41z"/>
<path d="M176 515 c-30 -40 -56 -96 -56 -122 0 -17 20 -27 133 -69 22 -8 22
12 0 85 -10 31 -28 64 -40 74 -26 21 -32 52 -8 43 16 -6 21 9 6 18 -5 3 -21
-10 -35 -29z"/>
<path d="M634 518 c1 -7 7 -23 14 -35 7 -12 12 -30 12 -39 0 -13 3 -15 11 -7
8 8 6 21 -6 47 -18 37 -35 56 -31 34z"/>
<path d="M845 451 c-7 -12 12 -24 25 -16 11 7 4 25 -10 25 -5 0 -11 -4 -15 -9z"/>
<path d="M1580 340 c0 -91 3 -110 15 -110 12 0 15 19 15 110 0 91 -3 110 -15
110 -12 0 -15 -19 -15 -110z"/>
<path d="M1950 422 c0 -24 -4 -28 -27 -27 l-28 0 0 -80 0 -80 38 0 37 -1 0
108 c0 65 -4 108 -10 108 -5 0 -10 -13 -10 -28z m-2 -104 c-2 -48 -7 -63 -18
-63 -11 0 -16 15 -18 63 -3 57 -1 62 18 62 19 0 21 -5 18 -62z"/>
<path d="M527 431 l-67 -6 44 -55 c25 -30 60 -73 79 -95 l35 -40 12 30 c13 34
16 120 6 153 -4 12 -15 21 -24 20 -9 -1 -47 -4 -85 -7z"/>
<path d="M728 335 c-2 -79 0 -105 10 -105 7 0 12 14 12 35 0 28 4 35 19 35 24
0 39 19 47 58 9 44 -17 82 -56 82 l-29 0 -3 -105z m57 35 c0 -35 -4 -45 -17
-48 -15 -3 -18 4 -18 48 0 44 3 51 18 48 13 -3 17 -13 17 -48z"/>
<path d="M1030 421 c0 -11 -6 -22 -12 -24 -10 -4 -10 -7 -1 -14 7 -5 13 -39
15 -78 3 -64 5 -70 26 -73 12 -2 22 1 22 7 0 6 -7 11 -15 11 -12 0 -15 14 -15
65 0 51 3 65 15 65 8 0 15 5 15 10 0 6 -7 10 -15 10 -8 0 -15 9 -15 20 0 11
-4 20 -10 20 -5 0 -10 -9 -10 -19z"/>
<path d="M1450 335 l0 -105 28 0 c60 0 94 57 56 95 -13 12 -14 19 -5 28 15 15
14 60 -1 75 -7 7 -27 12 -45 12 l-33 0 0 -105z m65 50 c0 -20 -6 -31 -17 -33
-15 -3 -18 4 -18 33 0 29 3 36 18 33 11 -2 17 -13 17 -33z m0 -95 c0 -25 -5
-36 -17 -38 -15 -3 -18 4 -18 38 0 34 3 41 18 38 12 -2 17 -13 17 -38z"/>
<path d="M345 419 c-51 -29 -60 -85 -20 -124 69 -70 180 29 118 104 -22 25
-71 35 -98 20z"/>
<path d="M850 315 c0 -50 4 -85 10 -85 6 0 10 35 10 85 0 50 -4 85 -10 85 -6
0 -10 -35 -10 -85z"/>
<path d="M922 388 c-18 -18 -16 -132 3 -148 18 -15 45 -10 59 12 14 24 -1 36
-18 13 -21 -29 -36 -8 -36 50 0 58 15 79 36 50 17 -23 32 -11 18 13 -14 21
-45 27 -62 10z"/>
<path d="M1110 320 c0 -64 3 -82 16 -87 8 -3 20 -1 26 5 8 8 15 9 25 1 11 -9
13 4 13 75 0 104 -18 116 -22 14 -2 -57 -6 -73 -18 -73 -12 0 -16 16 -18 73
-4 98 -22 92 -22 -8z"/>
<path d="M1230 315 c0 -69 3 -85 15 -85 12 0 15 14 15 69 0 72 -6 101 -21 101
-5 0 -9 -38 -9 -85z"/>
<path d="M1265 390 c-3 -5 1 -10 9 -10 9 0 16 -8 16 -17 0 -12 3 -14 10 -7 6
6 8 18 4 27 -7 19 -29 23 -39 7z"/>
<path d="M1337 393 c-11 -10 -8 -43 3 -43 6 0 10 7 10 16 0 24 34 12 38 -13 2
-14 -3 -23 -18 -28 -11 -4 -27 -17 -36 -30 -23 -35 -5 -63 41 -62 l35 1 0 67
c0 37 -3 74 -6 83 -6 16 -54 22 -67 9z m51 -110 c-4 -36 -38 -45 -38 -10 0 27
7 37 27 37 10 0 13 -9 11 -27z"/>
<path d="M1650 374 c-6 -14 -10 -40 -10 -59 0 -54 16 -85 44 -85 15 0 30 8 36
21 14 25 3 41 -11 16 -16 -28 -39 -21 -39 13 0 27 3 30 30 30 26 0 30 4 30 26
0 39 -18 64 -46 64 -17 0 -27 -8 -34 -26z m54 -10 c10 -26 7 -34 -14 -34 -15
0 -20 7 -20 25 0 28 24 34 34 9z"/>
<path d="M1760 315 c0 -69 3 -85 15 -85 12 0 15 14 15 69 0 72 -6 101 -21 101
-5 0 -9 -38 -9 -85z"/>
<path d="M1796 392 c-3 -5 3 -12 14 -15 18 -5 20 -14 20 -76 0 -43 4 -71 10
-71 7 0 10 30 8 83 -3 75 -5 82 -25 85 -11 2 -24 -1 -27 -6z"/>
<path d="M120 312 c0 -28 27 -93 52 -125 13 -18 17 -17 81 14 41 21 66 39 65
47 -2 8 -23 22 -48 32 -25 10 -69 27 -97 39 l-53 21 0 -28z"/>
<path d="M691 324 c0 -11 3 -14 6 -6 3 7 2 16 -1 19 -3 4 -6 -2 -5 -13z"/>
<path d="M494 323 c4 -7 3 -13 -2 -13 -11 0 -57 -208 -49 -217 11 -10 92 36
126 71 38 39 38 39 -33 117 -27 30 -46 48 -42 42z"/>
<path d="M670 293 c0 -11 -7 -36 -14 -54 -17 -38 -83 -133 -94 -135 -4 0 -29
-11 -57 -24 -61 -29 -179 -33 -237 -8 -28 13 -36 13 -32 3 10 -24 68 -40 149
-40 63 1 90 6 127 24 91 44 172 147 170 214 -1 33 -12 51 -12 20z"/>
<path d="M316 196 l-108 -53 53 -26 c30 -15 74 -28 98 -29 l45 -3 13 65 c7 35
11 70 9 77 -3 6 0 14 7 17 7 2 8 5 2 5 -5 0 -59 -24 -119 -53z"/>
</g>
</svg>
